{
    "asset" : {
        "generator" : "Khronos glTF Blender I/O v3.2.43",
        "version" : "2.0"
    },
    "scene" : 0,
    "scenes" : [
        {
            "name" : "Scene",
            "nodes" : [
                0
            ]
        }
    ],
    "nodes" : [
        {
            "mesh" : 0,
            "name" : "orca",
            "rotation" : [
                -0.7193397283554077,
                0,
                0,
                0.6946584582328796
            ],
            "scale" : [
                2.6016106605529785,
                2.6016106605529785,
                2.6016106605529785
            ],
            "translation" : [
                0,
                -0.12034916877746582,
                3.479184865951538
            ]
        }
    ],
    "animations" : [
        {
            "channels" : [
                {
                    "sampler" : 0,
                    "target" : {
                        "node" : 0,
                        "path" : "translation"
                    }
                },
                {
                    "sampler" : 1,
                    "target" : {
                        "node" : 0,
                        "path" : "rotation"
                    }
                },
                {
                    "sampler" : 2,
                    "target" : {
                        "node" : 0,
                        "path" : "scale"
                    }
                }
            ],
            "name" : "orca",
            "samplers" : [
                {
                    "input" : 5,
                    "interpolation" : "LINEAR",
                    "output" : 6
                },
                {
                    "input" : 5,
                    "interpolation" : "LINEAR",
                    "output" : 7
                },
                {
                    "input" : 5,
                    "interpolation" : "LINEAR",
                    "output" : 8
                }
            ]
        }
    ],
    "materials" : [
        {
            "doubleSided" : true,
            "name" : "whale",
            "pbrMetallicRoughness" : {}
        }
    ],
    "meshes" : [
        {
            "name" : "orca",
            "primitives" : [
                {
                    "attributes" : {
                        "POSITION" : 0,
                        "NORMAL" : 1,
                        "TANGENT" : 2,
                        "TEXCOORD_0" : 3
                    },
                    "indices" : 4,
                    "material" : 0
                }
            ]
        }
    ],
    "accessors" : [
        {
            "bufferView" : 0,
            "componentType" : 5126,
            "count" : 2296,
            "max" : [
                0.8845163583755493,
                7.800685882568359,
                1.3818858861923218
            ],
            "min" : [
                -0.884516179561615,
                4.000708103179932,
                -0.1469758301973343
            ],
            "type" : "VEC3"
        },
        {
            "bufferView" : 1,
            "componentType" : 5126,
            "count" : 2296,
            "type" : "VEC3"
        },
        {
            "bufferView" : 2,
            "componentType" : 5126,
            "count" : 2296,
            "type" : "VEC4"
        },
        {
            "bufferView" : 3,
            "componentType" : 5126,
            "count" : 2296,
            "type" : "VEC2"
        },
        {
            "bufferView" : 4,
            "componentType" : 5123,
            "count" : 11994,
            "type" : "SCALAR"
        },
        {
            "bufferView" : 5,
            "componentType" : 5126,
            "count" : 25,
            "max" : [
                1.0416666666666667
            ],
            "min" : [
                0.041666666666666664
            ],
            "type" : "SCALAR"
        },
        {
            "bufferView" : 6,
            "componentType" : 5126,
            "count" : 25,
            "type" : "VEC3"
        },
        {
            "bufferView" : 7,
            "componentType" : 5126,
            "count" : 25,
            "type" : "VEC4"
        },
        {
            "bufferView" : 8,
            "componentType" : 5126,
            "count" : 25,
            "type" : "VEC3"
        }
    ],
    "bufferViews" : [
        {
            "buffer" : 0,
            "byteLength" : 27552,
            "byteOffset" : 0
        },
        {
            "buffer" : 0,
            "byteLength" : 27552,
            "byteOffset" : 27552
        },
        {
            "buffer" : 0,
            "byteLength" : 36736,
            "byteOffset" : 55104
        },
        {
            "buffer" : 0,
            "byteLength" : 18368,
            "byteOffset" : 91840
        },
        {
            "buffer" : 0,
            "byteLength" : 23988,
            "byteOffset" : 110208
        },
        {
            "buffer" : 0,
            "byteLength" : 100,
            "byteOffset" : 134196
        },
        {
            "buffer" : 0,
            "byteLength" : 300,
            "byteOffset" : 134296
        },
        {
            "buffer" : 0,
            "byteLength" : 400,
            "byteOffset" : 134596
        },
        {
            "buffer" : 0,
            "byteLength" : 300,
            "byteOffset" : 134996
        }
    ],
    "buffers" : [
        {
            "byteLength" : 135296,
            "uri" : "data:application/octet-stream;base64,"
        }
    ]
}
